<svg version="1.1" id="Layer_1" xmlns="http://www.w3.org/2000/svg" xmlns:xlink="http://www.w3.org/1999/xlink" x="0" y="0" viewBox="0 0 248 239" xml:space="preserve"><style>.st1{fill:#e6e6e6}.st2{fill:#d2d2d2}.st5{fill:#f2f2f2}.st6{fill:#28c2d1}.st8,.st9{stroke-linecap:round}.st8{fill:none;stroke:#f2f2f2;stroke-width:3;stroke-miterlimit:10}.st9{clip-path:url(#SVGID_6_);stroke:#fed402;stroke-width:1.75}.st15,.st16,.st9{fill:none;stroke-miterlimit:10}.st15{clip-path:url(#SVGID_12_);stroke:#fed402;stroke-width:1.75;stroke-linecap:round}.st16{stroke:#008575;stroke-width:5}.st17{fill:#2f2f2f}.st22{fill:#aaa}.st26{fill:#b3afab}.st27{fill:#92908e}.st31{opacity:.5;fill:#ffc9a6}.st42{fill:#505050}</style><linearGradient id="SVGID_1_" gradientUnits="userSpaceOnUse" x1="118.685" y1="98.045" x2="164.891" y2="83.629" gradientTransform="matrix(-1 0 0 1 253.39 0)"><stop offset="0"/><stop offset=".542" stop-color="#505050"/></linearGradient><path d="M66.89 84.2c1.61-1.96 3.55-3.65 5.73-5.01 3.28-2.03 7.12-3.17 10.87-3.37l1.41-.07c.47-.01.92.04 1.38.06.92.07 1.86.07 2.73.25.88.15 1.8.3 2.64.46l2.27.51c6.04 1.35 12.05 2.69 18.06 3.94 6.02 1.25 12.04 2.41 18.07 3.42l-1.5 8.87c-6.17-1.04-12.3-2.22-18.4-3.48-6.1-1.26-12.17-2.62-18.2-3.97l-2.26-.51-1.93-.33c-.64-.15-1.26-.12-1.88-.17-.31-.01-.63-.06-.93-.05l-.91.06c-2.42.14-4.68.82-6.67 2.04-1.32.82-2.54 1.88-3.54 3.1-.41.49-1.25.53-1.94.07-.68-.46-.88-1.35-.38-1.97-.3.36-.59.73-.85 1.12-.44.63-1.31.82-2.05.46-.75-.36-.95-1.4-.42-2.17.31-.46.66-.91 1.01-1.33-.58.7-1.56.94-2.25.48-.68-.48-.74-1.59-.06-2.41z" fill="url(#SVGID_1_)"/><path class="st1" d="M172.21 202.18h30c5.52 0 10-4.48 10-10h-40v10zM118.57 202.18h30v-10h-40c0 5.52 4.48 10 10 10zM144.63 207.18c0-2.76-2.24-5-5-5h45.51c-2.76 0-5 2.24-5 5s2.24 5 5 5h-45.51c2.76 0 5-2.24 5-5z"/><circle class="st1" cx="234.34" cy="217.18" r="5"/><circle class="st1" cx="85.54" cy="217.18" r="5"/><path transform="rotate(180 159.939 217.176)" class="st1" d="M85.54 212.18h148.81v10H85.54z"/><circle class="st1" cx="205.7" cy="227.18" r="5"/><circle class="st1" cx="125.53" cy="227.18" r="5"/><path transform="rotate(180 165.617 227.176)" class="st1" d="M125.53 222.18h80.17v10h-80.17z"/><path transform="rotate(180 149.427 199.676)" class="st1" d="M126.64 197.18h45.58v5h-45.58z"/><path transform="rotate(180 128.572 189.676)" class="st1" d="M108.57 187.18h40v5h-40z"/><path transform="rotate(180 192.214 189.676)" class="st1" d="M172.21 187.18h40v5h-40z"/><path class="st1" d="M167.21 197.18c2.76 0 5-2.24 5-5v5h-5zM153.57 197.18c-2.76 0-5-2.24-5-5v5h5z"/><ellipse class="st2" cx="139.45" cy="161.28" rx="6" ry=".75"/><ellipse class="st2" cx="181.33" cy="161.28" rx="6" ry=".75"/><linearGradient id="SVGID_2_" gradientUnits="userSpaceOnUse" x1="182.627" y1="126.535" x2="182.49" y2="175.686"><stop offset="0"/><stop offset=".542" stop-color="#505050"/></linearGradient><path d="M180 128s-5 11-3.57 34.03L186 165s-1-22 3-37h-9z" fill="url(#SVGID_2_)"/><linearGradient id="SVGID_3_" gradientUnits="userSpaceOnUse" x1="10871.958" y1="169.676" x2="10891.958" y2="169.676" gradientTransform="translate(-10699.743)"><stop offset="0" stop-color="#274b47"/><stop offset="1" stop-color="#008575"/></linearGradient><ellipse cx="182.21" cy="169.68" rx="10" ry="1.25" fill="url(#SVGID_3_)"/><path class="st1" d="M181.33 162.03c-3.31 0-6-.34-6-.75v9.87h12v-9.87c0 .41-2.68.75-6 .75z"/><path class="st5" d="M209.71 192.18h-35a2.5 2.5 0 01-2.5-2.5v-2.5h40v2.5c0 1.38-1.11 2.5-2.5 2.5z"/><path class="st6" d="M202.21 177.18h-2.5c-4.14 0-7.5-3.36-7.5-7.5 0 .69-4.48 1.25-10 1.25s-10-.56-10-1.25v17.5h40c0-5.53-4.47-10-10-10z"/><linearGradient id="SVGID_4_" gradientUnits="userSpaceOnUse" x1="10886.958" y1="169.987" x2="10886.958" y2="185.372" gradientTransform="translate(-10699.743)"><stop offset="0" stop-color="#53ceda"/><stop offset="1" stop-color="#28c2d1"/></linearGradient><path d="M202.21 177.18h-2.5c-4.14 0-7.5-3.36-7.5-7.5 0 .69-4.48 1.25-10 1.25s-10-.56-10-1.25v17.5h30v-10z" fill="url(#SVGID_4_)"/><path class="st1" d="M202.21 177.18v10h10c0-5.53-4.47-10-10-10z"/><circle class="st5" cx="180.21" cy="179.05" r="4"/><path class="st8" d="M193.27 173.1l-2.73 2.73M196.33 176.16l-2.73 2.73"/><defs><path id="SVGID_5_" d="M175.33 162.28h12v8.87h-12z"/></defs><clipPath id="SVGID_6_"><use xlink:href="#SVGID_5_" overflow="visible"/></clipPath><path class="st9" d="M188.52 163.88c0 .5-3.22.9-7.19.9s-7.19-.4-7.19-.9M188.52 167.28c0 .5-3.22.9-7.19.9s-7.19-.4-7.19-.9"/><linearGradient id="SVGID_7_" gradientUnits="userSpaceOnUse" x1="142.915" y1="119.223" x2="142.747" y2="179.58"><stop offset="0"/><stop offset=".542" stop-color="#505050"/></linearGradient><path d="M143 121s-9 17-7 45c0 0 8.9 1 8.45 0-.45-1-.45-20 5.55-42l-7-3z" fill="url(#SVGID_7_)"/><linearGradient id="SVGID_8_" gradientUnits="userSpaceOnUse" x1="104.819" y1="169.676" x2="124.819" y2="169.676" gradientTransform="matrix(-1 0 0 1 253.39 0)"><stop offset="0" stop-color="#274b47"/><stop offset="1" stop-color="#008575"/></linearGradient><ellipse cx="138.57" cy="169.68" rx="10" ry="1.25" fill="url(#SVGID_8_)"/><path class="st1" d="M139.45 162.03c3.31 0 6-.34 6-.75v9.87h-12v-9.87c0 .41 2.69.75 6 .75z"/><path class="st2" d="M147.77 24.16l68.25 9.56c6.28.88 10.7 6.74 9.82 13.01l-11.17 79.73c-.91 6.52-6.99 11.11-13.51 10.19l-67.81-9.5c-4.38-.61-7.43-4.66-6.81-9.03l12.21-87.16c.6-4.37 4.65-7.42 9.02-6.8z"/><linearGradient id="SVGID_9_" gradientUnits="userSpaceOnUse" x1="338.96" y1="-616.92" x2="338.96" y2="-515.765" gradientTransform="scale(-1 1) rotate(-7.973 4715.674 3406.265)"><stop offset=".703" stop-color="#f2f2f2"/><stop offset=".877" stop-color="#efefef"/><stop offset="1" stop-color="#e6e6e6"/></linearGradient><path d="M140.99 23.21l71.74 10.05c4.38.61 7.43 4.66 6.81 9.03l-12.21 87.16c-.61 4.38-4.66 7.43-9.03 6.81l-71.74-10.05c-4.38-.61-7.43-4.66-6.81-9.03l12.21-87.16c.61-4.38 4.66-7.43 9.03-6.81z" fill="url(#SVGID_9_)"/><path class="st5" d="M111.07 192.18h35a2.5 2.5 0 002.5-2.5v-2.5h-40v2.5a2.5 2.5 0 002.5 2.5z"/><path class="st6" d="M118.57 177.18h2.5c4.14 0 7.5-3.36 7.5-7.5 0 .69 4.48 1.25 10 1.25s10-.56 10-1.25v17.5h-40c0-5.53 4.48-10 10-10z"/><linearGradient id="SVGID_10_" gradientUnits="userSpaceOnUse" x1="119.819" y1="169.987" x2="119.819" y2="185.372" gradientTransform="matrix(-1 0 0 1 253.39 0)"><stop offset="0" stop-color="#53ceda"/><stop offset="1" stop-color="#28c2d1"/></linearGradient><path d="M118.57 177.18h2.5c4.14 0 7.5-3.36 7.5-7.5 0 .69 4.48 1.25 10 1.25s10-.56 10-1.25v17.5h-30v-10z" fill="url(#SVGID_10_)"/><path class="st1" d="M118.57 177.18v10h-10c0-5.53 4.48-10 10-10z"/><circle class="st5" cx="140.57" cy="179.05" r="4"/><path class="st8" d="M127.52 173.1l2.72 2.73M124.46 176.16l2.72 2.73"/><path fill="none" stroke="#d2d2d2" stroke-width="4.793" stroke-linecap="round" stroke-miterlimit="10" d="M191.59 121.84l-30.33-4.24"/><defs><path id="SVGID_11_" d="M133.45 162.28h12v8.87h-12z"/></defs><clipPath id="SVGID_12_"><use xlink:href="#SVGID_11_" overflow="visible"/></clipPath><path class="st15" d="M132.27 163.88c0 .5 3.22.9 7.19.9s7.19-.4 7.19-.9M132.27 167.28c0 .5 3.22.9 7.19.9s7.19-.4 7.19-.9"/><path class="st2" d="M216.64 95.24s-3.79 3.54-3.83 13.81c-.04 10.27-2.58-.26-2.58-.26l2.66-19.03 3.75 5.48z"/><path class="st16" d="M178.9 63.03c-1.77-1.6-4.02-2.7-6.56-3.05-2.28-.32-4.5 0-6.48.83"/><path class="st17" d="M149.86 59.89c2.46.28 4.18 2.15 3.83 4.17-.34 2.02-2.62 3.43-5.08 3.15-2.46-.28-4.18-2.15-3.83-4.17.34-2.03 2.62-3.44 5.08-3.15z"/><radialGradient id="SVGID_13_" cx="2158.306" cy="1150.412" r="1.304" gradientTransform="matrix(-1.4855 -.1709 -.2081 1.2201 3593.618 -972.793)" gradientUnits="userSpaceOnUse"><stop offset="0" stop-color="#fff"/><stop offset="1" stop-color="#fff" stop-opacity="0"/></radialGradient><ellipse cx="148.1" cy="62.03" rx="1.96" ry="1.61" fill="url(#SVGID_13_)"/><radialGradient id="SVGID_14_" cx="2156.346" cy="1152.767" r=".807" gradientTransform="matrix(-1.4855 -.1709 -.2081 1.2201 3593.618 -972.793)" gradientUnits="userSpaceOnUse"><stop offset="0" stop-color="#fff"/><stop offset="1" stop-color="#fff" stop-opacity="0"/></radialGradient><ellipse cx="150.52" cy="65.24" rx="1.21" ry=".99" opacity=".5" fill="url(#SVGID_14_)"/><path class="st17" d="M194.29 66.05c2.38.68 3.77 2.75 3.1 4.62-.67 1.87-3.14 2.83-5.52 2.15-2.38-.68-3.77-2.75-3.1-4.62.67-1.88 3.14-2.84 5.52-2.15z"/><radialGradient id="SVGID_15_" cx="2507.715" cy="488.61" r="1.304" gradientTransform="matrix(-1.4366 -.4126 -.4034 1.1288 3991.934 550.885)" gradientUnits="userSpaceOnUse"><stop offset="0" stop-color="#fff"/><stop offset="1" stop-color="#fff" stop-opacity="0"/></radialGradient><path d="M190.35 68.13c.31.85 1.39 1.38 2.42 1.2s1.62-1.02 1.31-1.86c-.31-.85-1.39-1.38-2.42-1.2s-1.62 1.01-1.31 1.86z" fill="url(#SVGID_15_)"/><radialGradient id="SVGID_16_" cx="2505.754" cy="490.965" r=".807" gradientTransform="matrix(-1.4366 -.4126 -.4034 1.1288 3991.934 550.885)" gradientUnits="userSpaceOnUse"><stop offset="0" stop-color="#fff"/><stop offset="1" stop-color="#fff" stop-opacity="0"/></radialGradient><path d="M192.93 71.47c.19.52.86.86 1.5.74.64-.11 1-.63.81-1.15-.19-.52-.86-.86-1.5-.74s-1 .62-.81 1.15z" opacity=".5" fill="url(#SVGID_16_)"/><g><path class="st17" d="M166.27 77.26c-.8-.11-1.35.75-.95 1.44a5.376 5.376 0 008.42 1.17c.58-.56.28-1.54-.52-1.65l-3.48-.49-3.47-.47z"/><defs><path id="SVGID_17_" d="M166.27 77.26c-.8-.11-1.35.75-.95 1.44a5.376 5.376 0 008.42 1.17c.58-.56.28-1.54-.52-1.65l-3.48-.49-3.47-.47z"/></defs><clipPath id="SVGID_18_"><use xlink:href="#SVGID_17_" overflow="visible"/></clipPath></g><path class="st22" d="M149.97 28.34c.73.66.01 1.78-1.03 1.64-1.56-.21-3.04-.63-5.46-.34-2.58.31-4.07 1.05-5.63 1.7-.97.4-1.95-.53-1.4-1.35 1.35-2.03 3.65-3.5 6.4-3.84 2.74-.32 5.32.55 7.12 2.19zM204.54 35.83c-.92.34-.67 1.65.35 1.91 1.53.38 3.06.55 5.19 1.72 2.27 1.25 3.39 2.49 4.59 3.67.75.73 2 .23 1.8-.73-.5-2.38-2.09-4.61-4.52-5.94-2.41-1.34-5.13-1.48-7.41-.63z"/><g><linearGradient id="SVGID_19_" gradientUnits="userSpaceOnUse" x1="103.123" y1="11.971" x2="63.013" y2="28.632" gradientTransform="matrix(-1 0 0 1 253.39 0)"><stop offset="0" stop-color="#53ceda"/><stop offset="1" stop-color="#28c2d1"/></linearGradient><path d="M195.31 31.48l8.09-2.57c.61-.99.34-2.29-.62-2.95l-11.37-8.23a2.16 2.16 0 00-1.07-.38l-24.15-3.93c-.27-.02-.54.01-.8.09l-10.74 3.22c-1.25.38-1.9 1.76-1.38 2.96l3.58 6.42 38.46 5.37z" fill="url(#SVGID_19_)"/><linearGradient id="SVGID_20_" gradientUnits="userSpaceOnUse" x1="-135.05" y1="587.085" x2="-132.685" y2="607.518" gradientTransform="scale(-1 1) rotate(4.48 6982.898 -216.087)"><stop offset=".081" stop-color="#333" stop-opacity=".8"/><stop offset=".149" stop-color="#454545" stop-opacity=".741"/><stop offset=".354" stop-color="#767676" stop-opacity=".562"/><stop offset=".548" stop-color="#9d9d9d" stop-opacity=".393"/><stop offset=".726" stop-color="#b8b8b8" stop-opacity=".238"/><stop offset=".883" stop-color="#c9c9c9" stop-opacity=".102"/><stop offset="1" stop-color="#cfcfcf" stop-opacity="0"/></linearGradient><path d="M169.78 39.17c-7.43-1.04-13.74-8.08-12.93-13.08l38.46 5.39c-7.68 4.76-18.09 8.73-25.53 7.69z" opacity=".4" fill="url(#SVGID_20_)"/><path d="M166.61 35.72c-7.43-1.04-10.57-4.63-9.77-9.63l38.46 5.39c-10.9 3.58-21.25 5.28-28.69 4.24z" fill="#605d5a"/></g><g><circle class="st26" cx="164.05" cy="85.03" r="3.35"/><path class="st26" d="M162.06 82.34l5.01-4.34 5.17 1.05-3.17 10.47-5.54-1.14z"/><circle class="st27" cx="169.11" cy="86.17" r="3.35"/><path class="st27" d="M167.43 83.27l4.81-4.22.35.86-2.29 3.92z"/></g><linearGradient id="SVGID_21_" gradientUnits="userSpaceOnUse" x1="98.248" y1="34.006" x2="114.155" y2="126.239" gradientTransform="matrix(-1 0 0 1 253.39 0)"><stop offset=".703" stop-color="#f2f2f2"/><stop offset=".877" stop-color="#efefef"/><stop offset="1" stop-color="#e6e6e6"/></linearGradient><path d="M138.47 72.89c.32 3.48 5.11 5.9 10.7 5.39 5.59-.51 9.87-3.75 9.55-7.23-.32-3.48-5.11-5.9-10.7-5.39-5.59.51-9.87 3.75-9.55 7.23z" fill="url(#SVGID_21_)"/><linearGradient id="SVGID_22_" gradientUnits="userSpaceOnUse" x1="53.029" y1="77.195" x2="72.912" y2="77.195" gradientTransform="matrix(-1 0 0 1 253.39 0)"><stop offset=".703" stop-color="#f2f2f2"/><stop offset=".877" stop-color="#efefef"/><stop offset="1" stop-color="#e6e6e6"/></linearGradient><path d="M180.63 74.47c-.94 3.37 2.69 7.32 8.1 8.83 5.41 1.5 10.55-.01 11.49-3.38s-2.69-7.32-8.1-8.83c-5.41-1.5-10.56.01-11.49 3.38z" fill="url(#SVGID_22_)"/><radialGradient id="SVGID_23_" cx="4354.912" cy="-1749.256" r="11.902" gradientTransform="matrix(-.9967 .0814 .067 .821 4656.127 1167.31)" gradientUnits="userSpaceOnUse"><stop offset="0" stop-color="#f17e32"/><stop offset="1" stop-color="#e34c00" stop-opacity="0"/></radialGradient><path d="M186.57 86.49c.44 5.4 6.11 9.34 12.66 8.8 6.55-.53 11.51-5.34 11.06-10.74-.44-5.4-6.11-9.34-12.66-8.8-6.54.53-11.5 5.34-11.06 10.74z" opacity=".2" fill="url(#SVGID_23_)"/><g><circle class="st31" cx="196.49" cy="82.36" r="1.5"/><circle class="st31" cx="197.77" cy="77.34" r="1.5"/><circle class="st31" cx="191.92" cy="79.11" r="1.5"/></g><g><linearGradient id="SVGID_24_" gradientUnits="userSpaceOnUse" x1="309.786" y1="-603.897" x2="309.786" y2="-561.658" gradientTransform="scale(-1 1) rotate(-7.973 4715.674 3406.265)"><stop offset=".081" stop-color="#333" stop-opacity=".8"/><stop offset=".149" stop-color="#454545" stop-opacity=".741"/><stop offset=".354" stop-color="#767676" stop-opacity=".562"/><stop offset=".548" stop-color="#9d9d9d" stop-opacity=".393"/><stop offset=".726" stop-color="#b8b8b8" stop-opacity=".238"/><stop offset=".883" stop-color="#c9c9c9" stop-opacity=".102"/><stop offset="1" stop-color="#cfcfcf" stop-opacity="0"/></linearGradient><circle cx="200.9" cy="66.93" r="22.94" opacity=".3" fill="url(#SVGID_24_)"/><circle class="st16" cx="201.89" cy="67.07" r="22.94"/></g><radialGradient id="SVGID_25_" cx="14365.771" cy="-4474.642" r="11.902" gradientTransform="matrix(.936 .352 -.29 .771 -14603.567 -1530.173)" gradientUnits="userSpaceOnUse"><stop offset="0" stop-color="#f17e32"/><stop offset="1" stop-color="#e34c00" stop-opacity="0"/></radialGradient><path d="M151.24 81.54c-1.91 5.07-8.44 7.3-14.59 4.99-6.15-2.31-9.59-8.3-7.69-13.37 1.91-5.07 8.44-7.3 14.59-4.99s9.6 8.3 7.69 13.37z" opacity=".2" fill="url(#SVGID_25_)"/><g><linearGradient id="SVGID_26_" gradientUnits="userSpaceOnUse" x1="374.377" y1="-601.098" x2="361.726" y2="-564.819" gradientTransform="scale(-1 1) rotate(-7.973 4715.674 3406.265)"><stop offset=".081" stop-color="#333" stop-opacity=".8"/><stop offset=".149" stop-color="#454545" stop-opacity=".741"/><stop offset=".354" stop-color="#767676" stop-opacity=".562"/><stop offset=".548" stop-color="#9d9d9d" stop-opacity=".393"/><stop offset=".726" stop-color="#b8b8b8" stop-opacity=".238"/><stop offset=".883" stop-color="#c9c9c9" stop-opacity=".102"/><stop offset="1" stop-color="#cfcfcf" stop-opacity="0"/></linearGradient><circle cx="143.28" cy="58.86" r="22.94" opacity=".3" fill="url(#SVGID_26_)"/><circle class="st16" cx="142.29" cy="58.72" r="22.94"/></g><g><circle class="st31" cx="145.29" cy="74.75" r="1.5"/><circle class="st31" cx="141.21" cy="69.42" r="1.5"/><circle class="st31" cx="139.59" cy="74.39" r="1.5"/></g><path d="M162.72 109.31l49.79-16.78-5.17 36.92c-.61 4.38-4.66 7.43-9.03 6.81l-71.74-10.05c-4.38-.61-7.43-4.66-6.81-9.03l5.04-35.96 37.92 28.09z" fill="#ffc838"/><g><defs><path id="SVGID_27_" d="M162.72 109.31l49.79-16.78-5.17 36.92c-.61 4.38-4.66 7.43-9.03 6.81l-71.74-10.05c-4.38-.61-7.43-4.66-6.81-9.03l5.04-35.96 37.92 28.09z"/></defs><clipPath id="SVGID_28_"><use xlink:href="#SVGID_27_" overflow="visible"/></clipPath><linearGradient id="SVGID_29_" gradientUnits="userSpaceOnUse" x1="90.953" y1="117.432" x2="90.953" y2="117.432" gradientTransform="matrix(-1 0 0 1 253.39 0)"><stop offset=".703" stop-color="#f2f2f2"/><stop offset=".877" stop-color="#efefef"/><stop offset="1" stop-color="#e6e6e6"/></linearGradient><path clip-path="url(#SVGID_28_)" fill="url(#SVGID_29_)" stroke="#c1c1c1" stroke-width="10" stroke-miterlimit="10" d="M213.14 124.53l-101.4-14.2"/><linearGradient id="SVGID_30_" gradientUnits="userSpaceOnUse" x1="366.255" y1="-594.277" x2="366.255" y2="-508.683" gradientTransform="scale(-1 1) rotate(-7.973 4715.674 3406.265)"><stop offset=".703" stop-color="#f2f2f2"/><stop offset=".877" stop-color="#efefef"/><stop offset="1" stop-color="#e6e6e6"/></linearGradient><path clip-path="url(#SVGID_28_)" fill="url(#SVGID_30_)" stroke="#c1c1c1" stroke-width="6" stroke-miterlimit="10" d="M134.47 134.15l12.21-87.16"/><linearGradient id="SVGID_31_" gradientUnits="userSpaceOnUse" x1="312.771" y1="-588.251" x2="312.771" y2="-502.657" gradientTransform="scale(-1 1) rotate(-7.973 4715.674 3406.265)"><stop offset=".703" stop-color="#f2f2f2"/><stop offset=".877" stop-color="#efefef"/><stop offset="1" stop-color="#e6e6e6"/></linearGradient><path clip-path="url(#SVGID_28_)" fill="url(#SVGID_31_)" stroke="#c1c1c1" stroke-width="6" stroke-miterlimit="10" d="M186.6 147.53l12.21-87.15"/><linearGradient id="SVGID_32_" gradientUnits="userSpaceOnUse" x1="90.675" y1="115.452" x2="91.23" y2="119.413" gradientTransform="matrix(-1 0 0 1 253.39 0)"><stop offset=".703" stop-color="#f2f2f2"/><stop offset=".877" stop-color="#efefef"/><stop offset="1" stop-color="#e6e6e6"/></linearGradient><path clip-path="url(#SVGID_28_)" fill="#c1c1c1" stroke="url(#SVGID_32_)" stroke-width="4" stroke-miterlimit="10" d="M213.14 124.53l-101.4-14.2"/></g><path d="M198.31 136.26c4.38.61 8.42-2.44 9.03-6.81l5.17-36.92h6.91l-4.75 33.94c-.61 4.38-10.31 10.64-14.69 10.03l-1.67-.24z" fill="#ffb900"/><path d="M14.27 58.96c.66-1.68 2.56-2.52 4.22-1.88l43.84 15.86c.46.18 1.51.8 1.28 2.66-.1.79-.4 1.64-.65 2.28-.37.95-1.15 1.66-2.1 1.95-.1.4-.25.92-.76 1.19-.18.09-.37.14-.57.14-.15 0-.3-.03-.46-.09L16.14 63.21a3.302 3.302 0 01-1.87-4.25z" fill="#f16522"/><path class="st26" d="M61.32 72.55l22.21 8.63c1.09.42 1.95 1.24 2.42 2.31s.5 2.26.07 3.35c-.6 1.54-2 2.6-3.65 2.77-.16.02-.33.02-.49.02-.52-.01-1.04-.11-1.53-.3l-22.29-8.66 3.26-8.12z"/><path class="st42" d="M76.32 82.19c.68 1.21 1.9 1.23 3.7.74 1.79-.49 6.58-1.63 4.53-3.14s-3.63-.62-5.43-.12c-1.79.49-3.48 1.3-2.8 2.52z"/><path d="M124.79 81.21c3.07 25.13 34.92 4.56 39.09 6.69 23.58 12.04 59.54 7.99 56.3 2.73" fill="none" stroke="#000" stroke-width="1.112" stroke-linecap="round" stroke-miterlimit="10"/><path class="st42" d="M163.08 91.18c.54-.62 1.51-.68 2.16-.12l-1.18-1.01c-.65-.56-.73-1.52-.19-2.14.55-.62 1.51-.68 2.16-.12l1.17 1.01c-.65-.56-.73-1.51-.18-2.14s1.5-.68 2.14-.13c1.55 1.32 3.08 2.68 4.65 3.97 2.37 1.93 4.69 3.92 7.1 5.76l3.6 2.81 3.65 2.71c4.9 3.56 9.91 6.95 15.08 9.87 2.59 1.44 5.21 2.81 7.86 3.93 2.64 1.18 5.33 2.05 7.91 2.6 2.56.54 5.09.54 6.61-.04.74-.3 1.13-.67 1.44-1.12.3-.45.5-1.12.51-1.96.06-1.69-.92-3.79-2.19-4.95l-.24-.21c-.07-.07-.15-.15-.31-.25l-.84-.59c-.57-.39-1.1-.82-1.71-1.16l-1.79-1.08c-.61-.34-1.25-.65-1.87-.98l-.94-.49-.98-.43-1.96-.86c-.48-.17-.94-.35-1.41-.53.32-5 1.76-7.7 2.43-8.7.79.3 1.57.61 2.36.89l2.29 1 1.14.51 1.12.58c.75.39 1.5.76 2.24 1.17l2.18 1.32c.74.42 1.42.96 2.13 1.44l1.05.75c.16.1.37.28.59.47l.63.55c1.63 1.52 2.85 3.31 3.72 5.25.87 1.94 1.36 4.06 1.36 6.32 0 2.24-.56 4.7-1.95 6.84-1.37 2.15-3.52 3.76-5.67 4.59-.53.21-1.06.34-1.6.51-.27.07-.54.16-.8.22l-.77.12-1.54.21-1.47.03c-1 .05-1.91-.06-2.83-.16-.95-.06-1.8-.26-2.68-.42-3.47-.73-6.69-1.81-9.7-3.15-3.05-1.29-5.92-2.8-8.74-4.36-5.6-3.17-10.86-6.73-15.97-10.44l-3.8-2.82-3.72-2.9c-2.5-1.91-4.88-3.95-7.31-5.93-1.61-1.33-3.17-2.71-4.76-4.07-.63-.59-.72-1.55-.18-2.17z"/></svg>